<svg xmlns="http://www.w3.org/2000/svg" width="1080" height="480" viewBox="0 0 1080 480" role="img" aria-label="Banner decorativo Docee">
  <defs>
    <linearGradient id="baseM" x1="0" y1="0" x2="1" y2="1">
      <stop offset="0" stop-color="#1f2937"/>
      <stop offset="1" stop-color="#34434f"/>
    </linearGradient>
    <radialGradient id="brilhoM" cx="0.5" cy="0.5" r="0.5">
      <stop offset="0" stop-color="#86cb92" stop-opacity="0.38"/>
      <stop offset="0.6" stop-color="#86cb92" stop-opacity="0.09"/>
      <stop offset="1" stop-color="#86cb92" stop-opacity="0"/>
    </radialGradient>
    <pattern id="pontosM" width="26" height="26" patternUnits="userSpaceOnUse">
      <circle cx="2" cy="2" r="1.4" fill="#86cb92" fill-opacity="0.15"/>
    </pattern>
  </defs>

  <rect width="1080" height="480" fill="url(#baseM)"/>
  <rect width="1080" height="480" fill="url(#pontosM)"/>

  <circle cx="812" cy="240" r="268" fill="url(#brilhoM)"/>
  <circle cx="812" cy="240" r="204" fill="none" stroke="#86cb92" stroke-opacity="0.28" stroke-width="2" stroke-dasharray="12 18"/>

  <circle cx="782" cy="262" r="94" fill="#86cb92" fill-opacity="0.88"/>
  <circle cx="908" cy="182" r="58" fill="#86cb92" fill-opacity="0.50"/>
  <circle cx="952" cy="312" r="74" fill="#86cb92" fill-opacity="0.30"/>
  <circle cx="690" cy="168" r="34" fill="#86cb92" fill-opacity="0.20"/>
  <circle cx="1024" cy="212" r="40" fill="#efefef" fill-opacity="0.13"/>

  <g fill="#86cb92" fill-opacity="0.58">
    <rect x="612" y="118" width="24" height="8" rx="4" transform="rotate(-22 624 122)"/>
    <rect x="592" y="342" width="24" height="8" rx="4" transform="rotate(20 604 346)"/>
    <rect x="700" y="416" width="24" height="8" rx="4" transform="rotate(-14 712 420)"/>
    <rect x="856" y="72" width="24" height="8" rx="4" transform="rotate(32 868 76)"/>
    <rect x="992" y="382" width="24" height="8" rx="4" transform="rotate(-28 1004 386)"/>
    <rect x="1024" y="96" width="24" height="8" rx="4" transform="rotate(18 1036 100)"/>
  </g>
  <g fill="#efefef" fill-opacity="0.28">
    <rect x="660" y="228" width="20" height="7" rx="3.5" transform="rotate(42 670 231)"/>
    <rect x="900" y="52" width="20" height="7" rx="3.5" transform="rotate(-34 910 55)"/>
    <rect x="648" y="404" width="20" height="7" rx="3.5" transform="rotate(-18 658 407)"/>
  </g>
</svg>
