<svg xmlns="http://www.w3.org/2000/svg" width="2240" height="480" viewBox="0 0 2240 480" role="img" aria-label="Banner decorativo Docee">
  <defs>
    <linearGradient id="base" x1="0" y1="0" x2="1" y2="1">
      <stop offset="0" stop-color="#1f2937"/>
      <stop offset="1" stop-color="#34434f"/>
    </linearGradient>
    <radialGradient id="brilho" cx="0.5" cy="0.5" r="0.5">
      <stop offset="0" stop-color="#86cb92" stop-opacity="0.40"/>
      <stop offset="0.6" stop-color="#86cb92" stop-opacity="0.10"/>
      <stop offset="1" stop-color="#86cb92" stop-opacity="0"/>
    </radialGradient>
    <linearGradient id="divisor" x1="0" y1="0" x2="0" y2="1">
      <stop offset="0" stop-color="#86cb92" stop-opacity="0"/>
      <stop offset="0.5" stop-color="#86cb92" stop-opacity="0.45"/>
      <stop offset="1" stop-color="#86cb92" stop-opacity="0"/>
    </linearGradient>
    <pattern id="pontos" width="30" height="30" patternUnits="userSpaceOnUse">
      <circle cx="2" cy="2" r="1.5" fill="#86cb92" fill-opacity="0.16"/>
    </pattern>
  </defs>

  <rect width="2240" height="480" fill="url(#base)"/>
  <rect width="2240" height="480" fill="url(#pontos)"/>

  <circle cx="1730" cy="240" r="330" fill="url(#brilho)"/>
  <circle cx="1730" cy="240" r="252" fill="none" stroke="#86cb92" stroke-opacity="0.30" stroke-width="2" stroke-dasharray="14 20"/>

  <circle cx="1652" cy="258" r="112" fill="#86cb92" fill-opacity="0.90"/>
  <circle cx="1818" cy="176" r="74" fill="#86cb92" fill-opacity="0.52"/>
  <circle cx="1892" cy="308" r="98" fill="#86cb92" fill-opacity="0.32"/>
  <circle cx="2020" cy="196" r="48" fill="#efefef" fill-opacity="0.14"/>
  <circle cx="1556" cy="166" r="40" fill="#86cb92" fill-opacity="0.22"/>

  <g fill="#86cb92" fill-opacity="0.62">
    <rect x="1300" y="112" width="26" height="8" rx="4" transform="rotate(-24 1313 116)"/>
    <rect x="1268" y="316" width="26" height="8" rx="4" transform="rotate(18 1281 320)"/>
    <rect x="1396" y="392" width="26" height="8" rx="4" transform="rotate(-12 1409 396)"/>
    <rect x="1444" y="74" width="26" height="8" rx="4" transform="rotate(34 1457 78)"/>
    <rect x="2084" y="104" width="26" height="8" rx="4" transform="rotate(22 2097 108)"/>
    <rect x="2148" y="330" width="26" height="8" rx="4" transform="rotate(-30 2161 334)"/>
    <rect x="1988" y="410" width="26" height="8" rx="4" transform="rotate(14 2001 414)"/>
    <rect x="1560" y="428" width="26" height="8" rx="4" transform="rotate(-20 1573 432)"/>
  </g>
  <g fill="#efefef" fill-opacity="0.30">
    <rect x="1360" y="232" width="22" height="7" rx="3.5" transform="rotate(44 1371 235)"/>
    <rect x="1620" y="52" width="22" height="7" rx="3.5" transform="rotate(-38 1631 55)"/>
    <rect x="2120" y="236" width="22" height="7" rx="3.5" transform="rotate(28 2131 239)"/>
    <rect x="1852" y="440" width="22" height="7" rx="3.5" transform="rotate(-16 1863 443)"/>
  </g>

  <rect x="1084" y="90" width="2" height="300" fill="url(#divisor)"/>
</svg>
